# AST/ASF file generated using VICON BodyLanguage
# -----------------------------------------------
:version 1.10
:name VICON
:units
  mass 1.0
  length 0.45
  angle deg
:documentation
   .ast/.asf automatically generated from VICON data using
   VICON BodyBuilder and BodyLanguage model FoxedUp or BRILLIANT.MOD
:root
   order TX TY TZ RX RY RZ
   axis XYZ
   position 0 0 0  
   orientation 0 0 0 
:bonedata
  begin
     id 1 
     name lhipjoint
     direction 0.693937 -0.600361 0.397515 
     length 2.37164 
     axis 0 0 0  XYZ
  end
  begin
     id 2 
     name lfemur
     direction 0.34202 -0.939693 0  
     length 6.18497  
     axis 0 0 20  XYZ
    dof rx ry rz
    limits (-160.0 20.0)
           (-70.0 70.0)
           (-60.0 70.0)
  end
  begin
     id 3 
     name ltibia
     direction 0.34202 -0.939693 0   
     length 6.91601   
     axis 0 0 20   XYZ
    dof rx
    limits (-10.0 170.0)
  end
  begin
     id 4 
     name lfoot
     direction 0.0978718 -0.2689 0.958182   
     length 1.81453   
     axis -90 7.62852e-016 20   XYZ
    dof rx rz
    limits (-45.0 90.0)
           (-70.0 20.0)
  end
  begin
     id 5 
     name ltoes
     direction 1.53569e-011 -4.21951e-011 1   
     length 0.912052   
     axis -90 7.62852e-016 20   XYZ
    dof rx
    limits (-90.0 20.0)
  end
  begin
     id 6 
     name rhipjoint
     direction -0.643996 -0.637876 0.422354   
     length 2.23216  
     axis 0 0 0  XYZ 
  end
  begin
     id 7 
     name rfemur
     direction -0.34202 -0.939693 0   
     length 6.15404   
     axis 0 0 -20   XYZ
    dof rx ry rz
    limits (-160.0 20.0)
           (-70.0 70.0)
           (-70.0 60.0)
  end
  begin
     id 8 
     name rtibia
     direction -0.34202 -0.939693 0   
     length 6.86744   
     axis 0 0 -20   XYZ
    dof rx
    limits (-10.0 170.0)
 end
 begin
     id 9 
     name rfoot
     direction -0.118701 -0.326127 0.937844   
     length 1.9243  
     axis -90 -7.62852e-016 -20   XYZ
    dof rx rz
    limits (-45.0 90.0)
           (-20.0 70.0)
  end
  begin
     id 10 
     name rtoes
     direction -1.5356e-011 -4.2181e-011 1   
     length 0.958865   
     axis -90 -7.62852e-016 -20   XYZ
    dof rx
    limits (-90.0 20.0)
  end
  begin
     id 11 
     name lowerback
     direction 0.0310826 0.968686 -0.246334   
     length 2.00021   
     axis 0 0 0   XYZ
    dof rx ry rz
    limits (-20.0 45.0)
           (-30.0 30.0)
           (-30.0 30.0)
  end
  begin
     id 12 
     name upperback
     direction -0.0152834 0.999474 -0.0286152   
     length 2.03728   
     axis 0 0 0   XYZ
    dof rx ry rz
    limits (-20.0 45.0)
           (-30.0 30.0)
           (-30.0 30.0)
  end
  begin
     id 13 
     name thorax
     direction -0.0323701 0.996236 0.0804149   
     length 2.16   
     axis 0 0 0   XYZ
    dof rx ry rz
    limits (-20.0 45.0)
           (-30.0 30.0)
           (-30.0 30.0)
  end
  begin
     id 14 
     name lowerneck
     direction 0.0307935 0.982251 0.185027   
     length 1.43558   
     axis 0 0 0   XYZ
    dof rx ry rz
    limits (-20.0 45.0)
           (-30.0 30.0)
           (-30.0 30.0)
  end
  begin
     id 15 
     name upperneck
     direction -0.0927153 0.994775 0.0427454   
     length 1.44603   
     axis 0 0 0   XYZ
    dof rx ry rz
    limits (-20.0 45.0)
           (-30.0 30.0)
           (-30.0 30.0)
  end
  begin
     id 16
     name head
     direction -0.0341265 0.999406 -0.00472033  
     length 1.45931  
     axis 0 0 0   XYZ
    dof rx ry rz
    limits (-20.0 45.0)
           (-30.0 30.0)
           (-30.0 30.0)
  end
  begin
     id 17 
     name lclavicle
     direction 0.820755 0.555306 -0.134151  
     length 2.66075  
     axis 0 0 0   XYZ
    dof ry rz
    limits (-20.0 10.0)
           (0.0 20.0)
  end
  begin
     id 18 
     name lhumerus
     direction 1 -4.48971e-011 5.24853e-027   
     length 5.0546   
     axis -180 -30 -90   XYZ
    dof rx ry rz
    limits (-60.0 90.0)
           (-90.0 90.0)
           (-90.0 90.0)
  end
  begin
     id 19
     name lradius
     direction 1 -4.48971e-011 2.76575e-028   
     length 3.39013   
     axis -180 -30 -90   XYZ
    dof rx
    limits (-10.0 170.0)
  end
  begin
     id 20
     name lwrist
     direction 1 -4.48939e-011 -2.27826e-027   
     length 1.69507   
     axis 2.17013e-015 90 90   XYZ
    dof ry
    limits (-180.0 0.0)
 end
  begin
     id 21 
     name lhand
     direction 1 -4.49009e-011 -4.55652e-027   
     length 0.572425   
     axis 2.90745e-015 90 90   XYZ
    dof rx rz
    limits (-90.0 90.0)
           (-45.0 45.0)
  end
  begin
     id 22 
     name lfingers
     direction 1 -4.48955e-011 -9.11303e-027   
     length 0.461504   
     axis 5.81489e-015 90 90   XYZ
    dof rx
    limits (0.0 90.0)
  end
  begin
     id 23
     name lthumb
     direction 0.707107 -6.34929e-011 0.707107   
     length 0.66263   
     axis -90 45 2.85299e-015   XYZ
    dof rx rz
    limits (-45.0 45.0)
           (-45.0 45.0)
  end
  begin
     id 24 
     name rclavicle
     direction -0.754477 0.632921 -0.173712   
     length 2.73081  
     axis 0 0 0   XYZ 
    dof ry rz
    limits (-10.0 20.0)
           (-20.0 0.0)
  end
  begin
     id 25 
     name rhumerus
     direction -1 -4.48969e-011 5.1496e-027  
     length 5.0701   
     axis -180 30 90   XYZ
    dof rx ry rz
    limits (-90.0 60.0)
           (-90.0 90.0)
           (-90.0 90.0)
  end
  begin
     id 26 
     name rradius
     direction -1 -4.48967e-011 -7.15624e-028   
     length 3.14957   
     axis -180 30 90   XYZ
    dof rx
    limits (-10.0 170.0)
  end
  begin
     id 27 
     name rwrist
     direction -1 -4.48938e-011 -2.27826e-027   
     length 1.57479   
     axis 2.17013e-015 -90 -90   XYZ
    dof ry
    limits (-180.0 0.0)
  end
  begin
     id 28
     name rhand
     direction -1 -4.49008e-011 -4.55652e-027   
     length 0.718191   
     axis 2.90745e-015 -90 -90   XYZ
    dof rx rz
    limits (-90.0 90.0)
           (-45.0 45.0)
  end
  begin
     id 29
     name rfingers
     direction -1 -4.48953e-011 -9.11303e-027   
     length 0.579024   
     axis 5.81489e-015 -90 -90   XYZ
    dof rx
    limits (0.0 90.0)
  end
  begin
     id 30
     name rthumb
     direction -0.707107 -6.34937e-011 0.707107   
     length 0.831366   
     axis -90 -45 -2.85299e-015   XYZ
    dof rx rz
    limits (-45.0 45.0)
           (-45.0 45.0)
  end
:hierarchy
  begin
    root lhipjoint rhipjoint lowerback
    lhipjoint lfemur
    lfemur ltibia
    ltibia lfoot
    lfoot ltoes
    rhipjoint rfemur
    rfemur rtibia
    rtibia rfoot
    rfoot rtoes
    lowerback upperback
    upperback thorax
    thorax lowerneck lclavicle rclavicle
    lowerneck upperneck
    upperneck head
    lclavicle lhumerus
    lhumerus lradius
    lradius lwrist
    lwrist lhand lthumb
    lhand lfingers
    rclavicle rhumerus
    rhumerus rradius
    rradius rwrist
    rwrist rhand rthumb
    rhand rfingers
  end

#!OML:ASF H:\Male1\Project 1\Capture day 1\Session 1\Male1.ASF
:FULLY-SPECIFIED
:DEGREES
18
root 11.7213 15.2535 2.62841 178.2 5.00748 -177.925
lowerback 7.37048 1.39708 1.03446
upperback 4.71524 2.31543 -1.20716
thorax 0.826989 1.36543 -1.96884
lowerneck -10.1619 5.96851 6.79226
upperneck 27.3414 5.33061 -0.409037
head 10.6838 2.43763 -0.769442
rclavicle -1.27222e-014 9.54166e-015
rhumerus -38.6591 -8.06404 -82.3073
rradius 33.1643
rwrist -18.0148
rhand -21.3992 3.05203
rfingers 7.12502
rthumb 4.98888 -26.8692
lclavicle -1.27222e-014 9.54166e-015
lhumerus -34.0686 4.94668 79.5552
lradius 25.5012
lwrist -8.07915
lhand -17.997 11.7987
lfingers 7.12502
lthumb 8.27321 41.6167
rfemur 0.730363 13.6573 28.165
rtibia 25.2617
rfoot -28.9858 -26.5606
rtoes -23.8489
lfemur -16.9454 -13.4441 -18.5351
ltibia 35.3486
lfoot -20.5104 18.8967
ltoes -1.53054
19
root 11.6832 15.2559 2.58049 178.241 5.1766 -178.505
lowerback 7.32907 1.46931 0.306164
upperback 4.65919 2.36929 -1.4343
thorax 0.775533 1.37958 -1.79781
lowerneck -10.0655 6.03594 6.85211
upperneck 26.9645 5.48302 -0.433761
head 10.5334 2.527 -0.76949
rclavicle -1.82882e-014 1.98785e-014
rhumerus -38.618 -8.134 -82.3113
rradius 33.1987
rwrist -17.6258
rhand -21.3601 3.15594
rfingers 7.12502
rthumb 5.02662 -26.7644
lclavicle -1.82882e-014 1.98785e-014
lhumerus -34.2627 5.61045 79.0148
lradius 24.7292
lwrist -8.88549
lhand -17.9447 11.9251
lfingers 7.12502
lthumb 8.32375 41.7411
rfemur -0.107482 12.5518 27.0424
rtibia 26.642
rfoot -28.8521 -25.3603
rtoes -24.2651
lfemur -16.5423 -13.2242 -19.4102
ltibia 34.9363
lfoot -20.4632 19.2486
ltoes -3.07265
20
root 11.6443 15.2552 2.53685 178.206 5.3373 -179.269
lowerback 7.37553 1.49083 -0.629055
upperback 4.63804 2.35459 -1.70988
thorax 0.704363 1.36142 -1.55909
lowerneck -9.88273 3.95566 7.50404
upperneck 26.3323 6.52097 -1.4099
head 10.3185 4.26211 -0.876308
rclavicle 2.50469e-014 1.59028e-015
rhumerus -38.4154 -8.1435 -82.3631
rradius 33.1722
rwrist -17.2887
rhand -21.2391 3.24266
rfingers 7.12502
rthumb 5.14353 -26.6749
lclavicle 2.50469e-014 1.59028e-015
lhumerus -34.4702 6.35144 78.4685
lradius 24.159
lwrist -9.54757
lhand -17.8775 11.8454
lfingers 7.12502
lthumb 8.38855 41.6589
rfemur -1.22595 11.0863 25.6994
rtibia 28.521
rfoot -28.3524 -24.3988
rtoes -26.1322
lfemur -16.0084 -13.4845 -20.513
ltibia 34.3588
lfoot -20.2972 19.9939
ltoes -4.47588
21
root 11.6071 15.2544 2.49652 178.027 5.65312 -179.622
lowerback 7.6283 1.53672 -1.13804
upperback 4.65675 2.3988 -1.89345
thorax 0.574875 1.38369 -1.4753
lowerneck -9.54096 4.18759 7.71084
upperneck 25.5106 6.72613 -1.51587
head 9.97783 4.31815 -0.950143
rclavicle 1.39149e-014 -4.53229e-014
rhumerus -38.2118 -8.03795 -82.5468
rradius 33.2708
rwrist -17.2985
rhand -21.133 3.23583
rfingers 7.12502
rthumb 5.24592 -26.6792
lclavicle 1.39149e-014 -4.53229e-014
lhumerus -34.6469 6.74745 78.0589
lradius 23.8104
lwrist -9.78256
lhand -18.2378 11.9081
lfingers 7.12502
lthumb 8.0408 41.7351
rfemur -2.39852 9.80375 24.9185
rtibia 30.777
rfoot -27.9583 -23.6163
rtoes -27.4864
lfemur -15.2628 -13.6998 -21.1708
ltibia 33.6746
lfoot -20.2878 20.5653
ltoes -4.25225
22
root 11.5743 15.2574 2.46033 177.889 5.99044 -180.085
lowerback 7.75152 1.62959 -1.73367
upperback 4.76124 2.51529 -2.11244
thorax 0.605246 1.4458 -1.37812
lowerneck -9.28907 4.47126 7.86721
upperneck 24.4882 6.92942 -1.48371
head 9.58236 4.36689 -0.969957
rclavicle 2.00773e-014 -3.33958e-014
rhumerus -37.8849 -8.08006 -82.761
rradius 33.4791
rwrist -17.6114
rhand -21.3408 3.26833
rfingers 7.12502
rthumb 5.04526 -26.6516
lclavicle 2.00773e-014 -3.33958e-014
lhumerus -34.5951 6.67102 77.8764
lradius 23.6392
lwrist -9.74969
lhand -18.2161 11.7372
lfingers 7.12502
lthumb 8.06175 41.5634
rfemur -3.73192 8.66077 24.0857
rtibia 33.1495
rfoot -27.4362 -23.0415
rtoes -28.276
lfemur -14.6248 -13.6826 -21.8866
ltibia 33.0402
lfoot -20.3814 20.8173
ltoes -3.50484
23
root 11.5482 15.2641 2.42809 177.815 6.30224 -180.48
lowerback 7.94469 1.73366 -2.2409
upperback 4.78353 2.63853 -2.32002
thorax 0.514246 1.51019 -1.32487
lowerneck -9.02645 4.76806 8.23635
upperneck 23.4617 7.17099 -1.64529
head 9.20831 4.434 -1.08648
rclavicle 7.55382e-015 6.36111e-015
rhumerus -37.7075 -8.32811 -82.9065
rradius 33.7609
rwrist -17.7815
rhand -21.5893 3.31704
rfingers 7.12502
rthumb 4.80536 -26.6085
lclavicle 7.55382e-015 6.36111e-015
lhumerus -34.5722 6.36135 77.7758
lradius 23.5619
lwrist -9.60809
lhand -18.0964 11.5922
lfingers 7.12502
lthumb 8.17729 41.4139
rfemur -5.14685 7.57342 23.3746
rtibia 35.5225
rfoot -26.702 -22.6482
rtoes -29.116
lfemur -14.1156 -13.5742 -22.4696
ltibia 32.4844
lfoot -20.3982 20.9676
ltoes -3.10178
24
root 11.5181 15.272 2.39861 177.697 6.64603 -180.557
lowerback 8.16381 1.71546 -2.61012
upperback 4.85545 2.59867 -2.30345
thorax 0.453531 1.48924 -1.10603
lowerneck -8.5706 5.17915 8.58895
upperneck 22.2116 7.61664 -2.00217
head 8.74721 4.56745 -1.25248
rclavicle 8.34896e-015 -7.15625e-015
rhumerus -37.3986 -8.00925 -83.0754
rradius 34.0606
rwrist -18.0673
rhand -21.6323 3.34078
rfingers 7.12502
rthumb 4.76383 -26.5857
lclavicle 8.34896e-015 -7.15625e-015
lhumerus -34.5531 6.6682 77.6799
lradius 23.5185
lwrist -9.58694
lhand -18.3968 11.6089
lfingers 7.12502
lthumb 7.88737 41.4417
rfemur -6.46048 6.55455 23.0032
rtibia 37.8124
rfoot -25.9787 -22.1892
rtoes -29.7778
lfemur -13.5586 -13.5665 -22.738
ltibia 31.9597
lfoot -20.4516 21.1988
ltoes -2.30531
25
root 11.4881 15.28 2.37009 177.541 6.95072 -180.64
lowerback 8.43121 1.67675 -2.98424
upperback 4.91655 2.52684 -2.28548
thorax 0.356041 1.45259 -0.882522
lowerneck -7.95876 5.58655 8.74748
upperneck 20.7779 8.03457 -2.08167
head 8.18608 4.70069 -1.30585
rclavicle 2.90226e-014 3.18055e-014
rhumerus -37.1382 -7.58678 -83.2954
rradius 34.3911
rwrist -18.4845
rhand -21.7242 3.44028
rfingers 7.12502
rthumb 4.67507 -26.4881
lclavicle 2.90226e-014 3.18055e-014
lhumerus -34.5219 6.94774 77.6388
lradius 23.5574
lwrist -9.48842
lhand -18.6599 11.6483
lfingers 7.12502
lthumb 7.63346 41.4905
rfemur -7.65337 5.80284 22.6824
rtibia 39.8464
rfoot -25.1556 -22.0203
rtoes -31.0423
lfemur -12.9907 -13.7167 -23.0351
ltibia 31.5019
lfoot -20.5955 21.4652
ltoes -1.11401
26
root 11.4641 15.2898 2.34097 177.476 7.08807 -180.718
lowerback 8.63085 1.69125 -3.05174
upperback 4.94714 2.55017 -2.42272
thorax 0.282686 1.47286 -0.995654
lowerneck -7.42342 5.8879 9.02148
upperneck 19.3967 8.28821 -2.09052
head 7.6604 4.77861 -1.36979
rclavicle -1.0138e-014 1.59028e-015
rhumerus -37.044 -7.71227 -83.524
rradius 34.8021
rwrist -18.7422
rhand -21.7399 3.53724
rfingers 7.12502
rthumb 4.65995 -26.3915
lclavicle -1.0138e-014 1.59028e-015
lhumerus -34.3578 6.33435 77.8036
lradius 23.7375
lwrist -9.03877
lhand -18.6765 11.877
lfingers 7.12502
lthumb 7.61745 41.7198
rfemur -8.80325 5.23527 22.4149
rtibia 41.467
rfoot -24.5447 -21.7915
rtoes -31.9342
lfemur -12.5648 -13.9731 -23.2998
ltibia 31.1169
lfoot -20.7281 21.7394
ltoes -0.425256
27
root 11.4447 15.3005 2.31178 177.496 7.07253 -180.629
lowerback 8.78042 1.6345 -3.02696
upperback 4.96709 2.47551 -2.42375
thorax 0.222748 1.43891 -1.0098
lowerneck -6.97553 6.21937 9.4546
upperneck 18.1991 8.66192 -2.52098
head 7.2511 4.89563 -1.57766
rclavicle -2.98177e-015 -2.06736e-014
rhumerus -36.983 -7.65071 -83.6654
rradius 35.2851
rwrist -19.0384
rhand -21.518 3.5918
rfingers 7.12502
rthumb 4.8742 -26.3321
lclavicle -2.98177e-015 -2.06736e-014
lhumerus -34.2288 5.55994 78.1843
lradius 24.0878
lwrist -8.45765
lhand -18.6089 12.1067
lfingers 7.12502
lthumb 7.68269 41.9471
rfemur -9.87768 4.76013 22.3463
rtibia 42.5625
rfoot -24.3444 -21.3179
rtoes -31.8486
lfemur -12.2503 -14.2892 -23.3565
ltibia 30.7629
lfoot -20.8108 22.0123
ltoes -0.164487
